<?xml version="1.0" standalone="no"?>
<!DOCTYPE svg PUBLIC "-//W3C//DTD SVG 20010904//EN"
 "http://www.w3.org/TR/2001/REC-SVG-20010904/DTD/svg10.dtd">
<svg version="1.0" xmlns="http://www.w3.org/2000/svg"
 width="858.000000pt" height="858.000000pt" viewBox="0 0 858.000000 858.000000"
 preserveAspectRatio="xMidYMid meet">

<g transform="translate(0.000000,858.000000) scale(0.100000,-0.100000)"
fill="#000000" stroke="none">
<path d="M0 4290 l0 -4290 4290 0 4290 0 0 4290 0 4290 -4290 0 -4290 0 0
-4290z m4683 2234 c84 -16 130 -43 151 -89 35 -73 -15 -168 -178 -334 -139
-142 -233 -220 -506 -421 -419 -308 -592 -451 -775 -641 -94 -98 -180 -213
-595 -794 -266 -374 -509 -706 -539 -737 -93 -99 -211 -138 -247 -83 -11 17
-14 35 -10 57 3 18 86 263 185 543 98 281 177 511 176 513 -1 1 -26 -7 -56
-18 -156 -62 -637 -184 -939 -239 -327 -60 -500 -74 -565 -47 -33 14 -35 18
-35 60 0 81 7 87 483 376 175 106 314 196 310 200 -8 7 -405 327 -829 668
-139 111 -266 218 -283 237 -44 50 -43 95 3 141 34 34 35 34 123 34 130 0 211
-19 598 -140 773 -242 1004 -297 1130 -270 110 23 333 148 888 499 526 332
731 431 999 482 156 29 375 31 511 3z m-120 -1486 c15 -39 306 -848 809 -2243
99 -275 193 -537 208 -582 l29 -83 -333 0 -332 0 -105 308 -104 307 -541 3
c-509 2 -542 1 -549 -15 -13 -34 -215 -596 -215 -599 0 -2 -149 -4 -331 -4
-311 0 -331 1 -324 18 11 29 101 271 210 567 57 154 148 402 203 550 55 149
170 459 255 690 147 397 390 1054 408 1103 l9 22 343 0 344 0 16 -42z m3317
-1438 l0 -1470 -315 0 -315 0 0 600 0 600 -495 0 -495 0 0 -600 0 -600 -315 0
-315 0 0 1470 0 1470 315 0 315 0 0 -565 0 -565 495 0 495 0 0 563 c0 310 2
566 4 568 2 2 144 3 315 1 l311 -3 0 -1469z"/>
<path d="M4028 3792 c-97 -273 -175 -498 -174 -499 2 -2 158 -2 348 -1 l344 3
-167 490 c-92 270 -169 493 -171 497 -2 4 -83 -216 -180 -490z"/>
</g>
</svg>
